HIERARCHY
ROOT Hips
{
    OFFSET 0.000000 0.000000 0.000000
    CHANNELS 6 Xposition Yposition Zposition Zrotation Xrotation Yrotation
    JOINT Spine
    {
        OFFSET -0.000000 8.129577 0.000000
        CHANNELS 3 Zrotation Xrotation Yrotation
        JOINT Spine1
        {
            OFFSET -0.000000 26.390701 0.000000
            CHANNELS 3 Zrotation Xrotation Yrotation
            JOINT Neck
            {
                OFFSET -0.000000 26.282320 2.389302
                CHANNELS 3 Zrotation Xrotation Yrotation
                JOINT Head
                {
                    OFFSET -0.000000 13.879765 -1.982823
                    CHANNELS 3 Zrotation Xrotation Yrotation
                    End Site
                    {
                        OFFSET -0.000000 24.785294 0.000000
                    }
                }
            }
            JOINT LeftShoulder
            {
                OFFSET 3.977886 23.574526 -0.273520
                CHANNELS 3 Zrotation Xrotation Yrotation
                JOINT LeftArm
                {
                    OFFSET 13.762619 0.000000 0.000000
                    CHANNELS 3 Zrotation Xrotation Yrotation
                    JOINT LeftForeArm
                    {
                        OFFSET 26.101372 0.000000 0.000000
                        CHANNELS 3 Zrotation Xrotation Yrotation
                        JOINT LeftHand
                        {
                            OFFSET 29.959852 0.000000 0.000000
                            CHANNELS 3 Zrotation Xrotation Yrotation
                            End Site
                            {
                                OFFSET 14.871177 0.000000 0.000000
                            }
                        }
                    }
                }
            }
            JOINT RightShoulder
            {
                OFFSET -3.951699 23.574526 -0.273520
                CHANNELS 3 Zrotation Xrotation Yrotation
                JOINT RightArm
                {
                    OFFSET -13.762619 0.000000 0.000000
                    CHANNELS 3 Zrotation Xrotation Yrotation
                    JOINT RightForeArm
                    {
                        OFFSET -26.101372 0.000000 0.000000
                        CHANNELS 3 Zrotation Xrotation Yrotation
                        JOINT RightHand
                        {
                            OFFSET -29.959852 0.000000 0.000000
                            CHANNELS 3 Zrotation Xrotation Yrotation
                            End Site
                            {
                                OFFSET -14.871177 0.000000 0.000000
                            }
                        }
                    }
                }
            }
        }
    }
    JOINT LeftUpLeg
    {
        OFFSET 9.914117 0.000000 0.000000
        CHANNELS 3 Zrotation Xrotation Yrotation
        JOINT LeftLeg
        {
            OFFSET -0.000000 -41.427933 0.000000
            CHANNELS 3 Zrotation Xrotation Yrotation
            JOINT LeftFoot
            {
                OFFSET -0.000000 -41.025417 0.000000
                CHANNELS 3 Zrotation Xrotation Yrotation
                JOINT LeftToeBase
                {
                    OFFSET -0.000000 -6.444176 14.871177
                    CHANNELS 3 Zrotation Xrotation Yrotation
                    End Site
                    {
                        OFFSET -0.000000 0.000000 3.965647
                    }
                }
            }
        }
    }
    JOINT RightUpLeg
    {
        OFFSET -9.914117 0.000000 0.000000
        CHANNELS 3 Zrotation Xrotation Yrotation
        JOINT RightLeg
        {
            OFFSET -0.000000 -41.427933 0.000000
            CHANNELS 3 Zrotation Xrotation Yrotation
            JOINT RightFoot
            {
                OFFSET -0.000000 -41.025417 0.000000
                CHANNELS 3 Zrotation Xrotation Yrotation
                JOINT RightToeBase
                {
                    OFFSET -0.000000 -6.444176 14.871177
                    CHANNELS 3 Zrotation Xrotation Yrotation
                    End Site
                    {
                        OFFSET -0.000000 0.000000 3.965647
                    }
                }
            }
        }
    }
}
MOTION
Frames:    10
Frame Time:    0.004000
-39.947556    82.750031    -248.219803    0.357511    1.494120    5.032251    -0.852567    -7.291526    -1.313792    -0.293194    1.762798    -1.254975    1.118700    16.397879    -1.047022    -1.115317    -2.128201    -1.267750    9.944482    1.636670    -1.368229    -11.431334    3.197784    1.026283    -1.375738    2.305612    -2.488012    11.231247    2.673797    4.050227    -8.240451    -0.695166    3.314811    12.140388    3.575174    -5.178851    -4.119522    0.043699    -0.262331    -3.813203    -0.097820    3.957209    -2.353564    4.304931    0.173071    0.843573    -5.749527    2.670696    2.334333    -1.232300    4.656215    0.000000    0.000000    0.000000    0.467250    4.547321    2.313522    0.545521    -6.055474    3.634142    -1.817829    -2.084131    -13.636757    0.000000    0.000000    0.000000    
-39.949539    82.749786    -248.219925    0.355202    1.498784    5.022882    -0.852567    -7.291526    -1.313792    -0.293194    1.762798    -1.254975    1.062805    16.270145    -1.012032    -1.006013    -1.862157    -1.212813    9.950832    1.633067    -1.372126    -11.444010    3.187477    1.031610    -1.364305    2.304622    -2.497681    11.245438    2.671541    4.031033    -8.242633    -0.696534    3.322195    12.150109    3.590121    -5.173093    -4.287311    -0.403242    -0.205574    -3.496403    -0.518054    3.507079    -2.351609    4.306728    0.175981    0.845847    -5.756656    2.674975    2.334795    -1.239911    4.658066    0.000000    0.000000    0.000000    0.470832    4.543289    2.328450    0.546455    -6.059738    3.636511    -1.814117    -2.076641    -13.650071    0.000000    0.000000    0.000000    
-39.949566    82.749138    -248.219330    0.356282    1.499579    5.018889    -0.852567    -7.291526    -1.313792    -0.293194    1.762798    -1.254975    1.048578    16.121582    -1.005574    -0.997217    -1.715797    -1.205009    10.617332    1.860974    -1.228711    -11.964767    3.315436    0.770787    -1.433476    2.147435    -2.466957    11.152073    2.512905    4.060924    -8.913569    -0.457707    3.167182    12.734042    3.977223    -4.937875    -4.253548    -0.704052    -0.242964    -3.379202    -0.815471    3.469547    -2.354905    4.310371    0.182493    0.846757    -5.769285    2.690028    2.326294    -1.222610    4.643239    0.000000    0.000000    0.000000    0.471124    4.544399    2.313384    0.541971    -6.059202    3.658772    -1.835156    -2.081851    -13.649669    0.000000    0.000000    0.000000    
-39.950329    82.747444    -248.218918    0.353132    1.504115    5.019509    -0.852567    -7.291526    -1.313792    -0.293194    1.762798    -1.254975    1.118879    16.258356    -1.048110    -1.106401    -1.978229    -1.267499    10.628486    1.856169    -1.232736    -11.969690    3.283884    0.775331    -1.445380    2.162349    -2.479322    11.175189    2.528628    4.064714    -8.922243    -0.485381    3.172671    12.736003    3.946340    -4.954040    -4.243099    -0.677353    -0.229748    -3.387864    -0.788101    3.455694    -2.350571    4.297448    0.185432    0.844405    -5.751254    2.669820    2.343149    -1.248125    4.661052    0.000000    0.000000    0.000000    0.473858    4.548603    2.343702    0.542186    -6.078912    3.606675    -1.847529    -2.068878    -13.627148    0.000000    0.000000    0.000000    
-39.951176    82.749702    -248.220367    0.352894    1.518950    5.009758    -0.852567    -7.291526    -1.313792    -0.293194    1.762798    -1.254975    1.129404    16.200583    -1.043353    -1.119216    -1.921360    -1.264776    10.619005    1.840921    -1.184315    -11.959482    3.301039    0.739182    -1.445909    2.152378    -2.487176    11.174555    2.517745    4.057187    -8.908215    -0.490211    3.135309    12.728906    3.991069    -4.908223    -4.252370    -0.688490    -0.228413    -3.432625    -0.799797    3.426280    -2.355073    4.289842    0.190371    0.857205    -5.766825    2.690045    2.304860    -1.225386    4.639629    0.000000    0.000000    0.000000    0.477318    4.524561    2.326543    0.535624    -6.060443    3.627555    -1.830997    -2.079011    -13.624876    0.000000    0.000000    0.000000    
-39.951046    82.749161    -248.217728    0.357814    1.511382    5.015581    -0.852567    -7.291526    -1.313792    -0.293194    1.762798    -1.254975    1.097549    16.270777    -1.040092    -1.083778    -1.995956    -1.255672    10.607284    1.844560    -1.232153    -11.957381    3.281136    0.779546    -1.445520    2.156662    -2.494441    11.202516    2.522614    4.053710    -8.921104    -0.494408    3.169792    12.741506    4.001527    -4.952979    -4.261327    -0.662827    -0.221818    -3.408347    -0.773764    3.447401    -2.353067    4.295227    0.178228    0.845172    -5.758476    2.662823    2.320425    -1.224567    4.675990    0.000000    0.000000    0.000000    0.465031    4.534301    2.357944    0.546027    -6.061595    3.641407    -1.845240    -2.083498    -13.667912    0.000000    0.000000    0.000000    
-39.951344    82.748970    -248.219116    0.360409    1.518685    5.006796    -0.852567    -7.291526    -1.313792    -0.293194    1.762798    -1.254975    1.108651    16.263496    -1.039222    -1.120395    -1.996498    -1.260634    10.598297    1.857925    -1.212475    -11.948073    3.265763    0.759304    -1.442556    2.169213    -2.494745    11.176639    2.534497    4.055954    -8.927039    -0.497323    3.171281    12.742903    3.989305    -4.944993    -4.264517    -0.635641    -0.222663    -3.317513    -0.744867    3.481165    -2.359761    4.294051    0.184156    0.847751    -5.771177    2.702631    2.319360    -1.223937    4.638658    0.000000    0.000000    0.000000    0.464810    4.533387    2.332607    0.549243    -6.077005    3.631613    -1.831715    -2.067479    -13.637629    0.000000    0.000000    0.000000    
-39.951508    82.746925    -248.219879    0.355721    1.523840    5.004191    -0.852567    -7.291526    -1.313792    -0.293194    1.762798    -1.254975    1.117286    16.268490    -1.051815    -1.121763    -2.004713    -1.274011    10.619415    1.861120    -1.203006    -11.966745    3.237825    0.747934    -1.445821    2.167368    -2.504411    11.185896    2.533100    4.058734    -8.915241    -0.495219    3.157658    12.732520    4.013635    -4.925939    -4.257129    -0.620566    -0.223341    -3.388345    -0.732197    3.492051    -2.350201    4.285599    0.183020    0.837203    -5.757223    2.698182    2.314675    -1.244934    4.647963    0.000000    0.000000    0.000000    0.472433    4.528659    2.341947    0.538569    -6.081694    3.629333    -1.850360    -2.060985    -13.636926    0.000000    0.000000    0.000000    
-39.949684    82.749329    -248.218842    0.360555    1.532685    4.997385    -0.852567    -7.291526    -1.313792    -0.293194    1.762798    -1.254975    1.094754    16.221228    -1.046637    -1.090188    -1.950360    -1.263599    10.600358    1.842366    -1.177058    -11.949877    3.257874    0.735267    -1.451012    2.178169    -2.515964    11.193884    2.543999    4.059688    -8.921823    -0.501814    3.160576    12.728978    3.982215    -4.930175    -4.255494    -0.598531    -0.213387    -3.377759    -0.709503    3.494295    -2.363183    4.283606    0.176080    0.848989    -5.774428    2.706665    2.311155    -1.215027    4.659792    0.000000    0.000000    0.000000    0.457200    4.510979    2.371095    0.551023    -6.056291    3.622889    -1.841257    -2.086526    -13.644018    0.000000    0.000000    0.000000    
-39.952805    82.748543    -248.217346    0.354181    1.526041    4.996850    -0.852567    -7.291526    -1.313792    -0.293194    1.762798    -1.254975    1.136173    16.264791    -1.047962    -1.143112    -1.971372    -1.273047    10.617393    1.888098    -1.204994    -11.958338    3.189564    0.740685    -1.458959    2.186960    -2.507678    11.191779    2.550546    4.038201    -8.910810    -0.487686    3.167633    12.737865    4.028432    -4.926717    -4.276375    -0.606635    -0.218549    -3.349531    -0.717228    3.503160    -2.349200    4.287612    0.184111    0.840999    -5.763872    2.691762    2.328090    -1.235223    4.657803    0.000000    0.000000    0.000000    0.472459    4.532928    2.347141    0.541184    -6.094890    3.633457    -1.828489    -2.060243    -13.634964    0.000000    0.000000    0.000000    
